<?xml version="1.0" standalone="no"?>
<!DOCTYPE svg PUBLIC "-//W3C//DTD SVG 20010904//EN"
 "http://www.w3.org/TR/2001/REC-SVG-20010904/DTD/svg10.dtd">
<svg version="1.0" xmlns="http://www.w3.org/2000/svg"
 width="512.000000pt" height="512.000000pt" viewBox="0 0 512.000000 512.000000"
 preserveAspectRatio="xMidYMid meet">

<g transform="translate(0.000000,512.000000) scale(0.100000,-0.100000)"
fill="#000000" stroke="none">
<path d="M0 2560 l0 -2560 2560 0 2560 0 0 2560 0 2560 -2560 0 -2560 0 0
-2560z m2420 2107 c82 -54 375 -484 520 -761 299 -570 363 -1095 195 -1601
-59 -178 -181 -425 -223 -453 -42 -27 -90 -21 -123 16 -37 41 -37 67 2 173 53
146 72 262 73 459 1 202 -16 327 -71 515 -57 199 -99 265 -165 265 -30 0 -47
-8 -79 -37 -92 -83 -246 -349 -303 -525 -127 -387 -73 -762 163 -1133 69 -107
68 -172 -4 -211 -77 -41 -180 18 -357 206 -201 212 -298 462 -298 767 0 296
77 593 305 1173 18 47 51 141 73 210 99 305 126 442 138 705 8 168 19 206 67
235 41 25 47 25 87 -3z m-947 -1424 c106 -58 138 -172 78 -277 -17 -28 -39
-61 -50 -73 -12 -12 -21 -25 -21 -27 0 -7 -61 -109 -69 -116 -7 -6 -23 -48
-66 -175 -53 -155 -68 -271 -60 -450 9 -208 9 -205 18 -205 4 0 7 -9 7 -21 0
-41 62 -205 114 -305 124 -234 304 -410 539 -529 59 -30 145 -66 190 -80 242
-73 524 -73 748 0 42 14 83 24 90 22 8 -2 11 -2 6 1 -4 2 29 22 74 43 122 59
241 143 333 233 86 85 117 121 136 155 6 12 15 19 19 16 5 -2 8 3 7 13 0 9 5
16 12 14 8 -1 11 2 7 8 -3 5 7 29 22 52 70 105 131 269 159 432 26 152 16 374
-25 522 -17 61 -44 142 -61 179 -16 37 -27 72 -23 77 3 7 1 8 -6 4 -7 -5 -17
6 -26 28 -9 20 -40 70 -70 112 -65 90 -79 130 -72 196 20 169 234 238 348 112
51 -57 120 -164 113 -176 -5 -7 -3 -8 6 -3 10 6 12 4 7 -8 -3 -9 -1 -19 5 -23
7 -4 8 -3 4 4 -4 7 -5 12 -2 12 3 0 23 -35 45 -77 236 -473 241 -1018 13
-1478 -64 -130 -72 -145 -78 -145 -4 0 -3 7 0 16 3 9 2 12 -5 9 -5 -4 -7 -14
-5 -23 4 -11 -13 -41 -42 -79 -26 -34 -56 -74 -66 -90 -70 -102 -409 -392
-444 -378 -7 2 -11 1 -7 -4 3 -5 -7 -16 -22 -24 -16 -7 -47 -24 -70 -36 -23
-13 -48 -19 -54 -15 -7 4 -9 3 -6 -3 5 -8 -129 -73 -153 -73 -6 0 -18 -4 -28
-9 -30 -17 -173 -49 -282 -65 -302 -42 -615 1 -897 124 -29 12 -51 25 -49 29
2 3 -6 7 -18 7 -26 2 -228 123 -256 154 -3 3 -23 18 -45 35 -64 47 -226 212
-223 226 2 8 -3 13 -9 12 -12 -3 -86 87 -86 103 0 5 -8 15 -18 22 -11 7 -19
17 -19 22 0 4 -16 32 -35 62 -19 29 -33 59 -30 66 3 7 1 11 -4 8 -9 -6 -64
107 -105 217 -108 287 -124 671 -41 977 33 119 99 286 114 283 5 -2 8 4 5 11
-9 23 94 197 173 293 68 83 166 104 256 56z"/>
</g>
</svg>
